<svg width="789" height="821" viewBox="0 0 764 704" fill="none" xmlns="http://www.w3.org/2000/svg">
<path d="M28.8 429.6C156.8 473.6 267.2 484.8 368 484.8C441.6 484.8 457.6 479.2 457.6 460C457.6 440.8 440 436 381.6 436C121.6 436 5.66244e-07 370.4 5.66244e-07 222.4C5.66244e-07 76 136 -7.62939e-06 401.6 -7.62939e-06C517.6 -7.62939e-06 636 18.4 738.4 56L715.2 260C589.6 224 491.2 215.2 394.4 215.2C331.2 215.2 307.2 220.8 307.2 240C307.2 259.2 327.2 264 376.8 264C656.8 264 764 328.8 764 476.8C764 628.8 648.8 704 415.2 704C264 704 121.6 684.8 4.8 640L28.8 429.6Z" fill="#585858"/>
</svg>
